{
	"asset":{
		"generator":"Khronos glTF Blender I/O v3.5.30",
		"version":"2.0"
	},
	"extensionsUsed":[
		"KHR_materials_unlit"
	],
	"scene":0,
	"scenes":[
		{
			"name":"Scene",
			"nodes":[
				18
			]
		}
	],
	"nodes":[
		{
			"name":"Bone.004",
			"rotation":[
				0.005252217408269644,
				-0.9981717467308044,
				-0.060201019048690796,
				0.001163216307759285
			],
			"scale":[
				0.9999999403953552,
				1,
				1
			],
			"translation":[
				-1.0968506103381515e-09,
				0.24432437121868134,
				1.602415977686178e-10
			]
		},
		{
			"name":"Bone.016",
			"rotation":[
				-0.14397287368774414,
				-0.014263611286878586,
				0.020271873101592064,
				0.9892711639404297
			],
			"scale":[
				1,
				0.9999999403953552,
				1.0000001192092896
			],
			"translation":[
				-0.0007541590603068471,
				0.14165817201137543,
				0.002620341721922159
			]
		},
		{
			"children":[
				1
			],
			"name":"Bone.010",
			"rotation":[
				-0.17686200141906738,
				0.5384395718574524,
				-0.34312665462493896,
				0.7490439414978027
			],
			"scale":[
				1.0000001192092896,
				1.000000238418579,
				1.0000001192092896
			],
			"translation":[
				-0.0008803075179457664,
				0.07007084041833878,
				0.00354228587821126
			]
		},
		{
			"children":[
				2
			],
			"name":"Bone.006",
			"rotation":[
				-0.5935840606689453,
				0.5118192434310913,
				0.4703964293003082,
				0.4054950475692749
			],
			"scale":[
				0.9999998807907104,
				0.9999998807907104,
				0.9999997615814209
			],
			"translation":[
				-2.604974724818021e-08,
				0.24432437121868134,
				-2.214954974988359e-08
			]
		},
		{
			"name":"Bone.017",
			"rotation":[
				-0.0889754593372345,
				0.0362471342086792,
				0.057132817804813385,
				0.9937330484390259
			],
			"translation":[
				-0.0022553890012204647,
				0.13539117574691772,
				-0.00047637755051255226
			]
		},
		{
			"children":[
				4
			],
			"name":"Bone.011",
			"rotation":[
				-0.13137300312519073,
				-0.5456942915916443,
				0.3006051480770111,
				0.7711001634597778
			],
			"scale":[
				0.9999999403953552,
				0.9999998807907104,
				0.9999998807907104
			],
			"translation":[
				-0.001198616111651063,
				0.08211086690425873,
				-0.004748607985675335
			]
		},
		{
			"children":[
				5
			],
			"name":"Bone.008",
			"rotation":[
				-0.6013154983520508,
				-0.5044977068901062,
				-0.47310107946395874,
				0.4000963568687439
			],
			"scale":[
				0.9999998807907104,
				0.9999998211860657,
				1
			],
			"translation":[
				-1.506668922957033e-08,
				0.24432437121868134,
				1.837747731769923e-10
			]
		},
		{
			"children":[
				0,
				3,
				6
			],
			"name":"Bone.003",
			"rotation":[
				-0.006552692502737045,
				-0.0008760798955336213,
				-0.005306648090481758,
				0.9999640583992004
			],
			"scale":[
				1,
				1.0000001192092896,
				1
			],
			"translation":[
				-0.002916341181844473,
				-0.23932760953903198,
				-0.009978022426366806
			]
		},
		{
			"name":"Bone.026",
			"rotation":[
				-0.13311658799648285,
				0.011907725594937801,
				-0.06639371812343597,
				0.9888023734092712
			],
			"scale":[
				1,
				0.9999999403953552,
				1
			],
			"translation":[
				-1.1453039405751042e-08,
				0.1372290402650833,
				7.86676537245512e-08
			]
		},
		{
			"children":[
				8
			],
			"name":"Bone.014",
			"rotation":[
				-0.04643326997756958,
				0.0004461359931156039,
				0.01679488644003868,
				0.9987801313400269
			],
			"translation":[
				-1.3067165127722546e-08,
				0.22688429057598114,
				-1.525040715932846e-08
			]
		},
		{
			"children":[
				9
			],
			"name":"Bone.012",
			"rotation":[
				-0.09172091633081436,
				0.5895113348960876,
				-0.43303215503692627,
				0.675682544708252
			],
			"scale":[
				0.9999999403953552,
				0.9999998807907104,
				0.9999999403953552
			],
			"translation":[
				-2.3981556296348572e-08,
				0.057259220629930496,
				4.557659849524498e-08
			]
		},
		{
			"children":[
				10
			],
			"name":"Bone.007",
			"rotation":[
				-0.647808849811554,
				0.44829437136650085,
				0.5974834561347961,
				0.14963114261627197
			],
			"scale":[
				0.9999999403953552,
				0.9999999403953552,
				1
			],
			"translation":[
				-0.00042599154403433204,
				-0.24467779695987701,
				-0.016977857798337936
			]
		},
		{
			"name":"Bone.027",
			"rotation":[
				-0.13311631977558136,
				-0.011907987296581268,
				0.06639393419027328,
				0.9888023734092712
			],
			"scale":[
				0.9999999403953552,
				0.9999998807907104,
				0.9999999403953552
			],
			"translation":[
				-4.055004865222145e-08,
				0.13722936809062958,
				6.490154191851616e-09
			]
		},
		{
			"children":[
				12
			],
			"name":"Bone.015",
			"rotation":[
				-0.046433404088020325,
				-0.0004458162293303758,
				-0.0167947206646204,
				0.9987801313400269
			],
			"scale":[
				1,
				0.9999999403953552,
				0.9999999403953552
			],
			"translation":[
				1.116586645366624e-08,
				0.22688406705856323,
				5.238689482212067e-09
			]
		},
		{
			"children":[
				13
			],
			"name":"Bone.013",
			"rotation":[
				-0.09646529704332352,
				-0.5876586437225342,
				0.43551889061927795,
				0.6750370860099792
			],
			"scale":[
				1,
				0.9999998807907104,
				0.9999999403953552
			],
			"translation":[
				2.2817403078079224e-08,
				0.0580252967774868,
				5.844049155712128e-08
			]
		},
		{
			"children":[
				14
			],
			"name":"Bone.009",
			"rotation":[
				-0.6468515396118164,
				-0.45079776644706726,
				-0.5954607725143433,
				0.15424342453479767
			],
			"scale":[
				1,
				0.9999999403953552,
				1
			],
			"translation":[
				-0.00042599195148795843,
				-0.24467779695987701,
				-0.016977857798337936
			]
		},
		{
			"mesh":0,
			"name":"Object_2",
			"skin":0
		},
		{
			"mesh":1,
			"name":"Object_3",
			"skin":0
		},
		{
			"children":[
				16,
				17,
				7,
				11,
				15
			],
			"name":"Armature.001"
		}
	],
	"materials":[
		{
			"doubleSided":true,
			"extensions":{
				"KHR_materials_unlit":{}
			},
			"name":"Cloth.002",
			"pbrMetallicRoughness":{
				"baseColorTexture":{
					"index":0,
					"texCoord":0
				},
				"metallicFactor":0,
				"roughnessFactor":0.9
			}
		}
	],
	"meshes":[
		{
			"name":"Object_0.002",
			"primitives":[
				{
					"attributes":{
						"POSITION":0,
						"TEXCOORD_0":1,
						"NORMAL":2,
						"JOINTS_0":3,
						"WEIGHTS_0":4
					},
					"indices":5,
					"material":0
				}
			]
		},
		{
			"name":"Object_1.002",
			"primitives":[
				{
					"attributes":{
						"POSITION":7,
						"TEXCOORD_0":8,
						"NORMAL":9,
						"JOINTS_0":10,
						"WEIGHTS_0":11
					},
					"indices":12,
					"material":0
				}
			]
		}
	],
	"textures":[
		{
			"sampler":0,
			"source":0
		}
	],
	"images":[
		{
			"mimeType":"image/png",
			"name":"Cloth_baseColor",
			"uri":"Cloth_baseColor.png"
		}
	],
	"skins":[
		{
			"inverseBindMatrices":6,
			"joints":[
				7,
				0,
				3,
				2,
				1,
				6,
				5,
				4,
				11,
				10,
				9,
				8,
				15,
				14,
				13,
				12
			],
			"name":"Armature.001"
		}
	],
	"accessors":[
		{
			"bufferView":0,
			"componentType":5126,
			"count":31784,
			"max":[
				0.16449593007564545,
				-0.1711682379245758,
				0.08239328116178513
			],
			"min":[
				-0.1668137013912201,
				-0.7936456203460693,
				-0.07794755697250366
			],
			"type":"VEC3"
		},
		{
			"bufferView":1,
			"componentType":5126,
			"count":31784,
			"type":"VEC2"
		},
		{
			"bufferView":2,
			"componentType":5126,
			"count":31784,
			"type":"VEC3"
		},
		{
			"bufferView":3,
			"componentType":5121,
			"count":31784,
			"type":"VEC4"
		},
		{
			"bufferView":4,
			"componentType":5126,
			"count":31784,
			"type":"VEC4"
		},
		{
			"bufferView":5,
			"componentType":5123,
			"count":187680,
			"type":"SCALAR"
		},
		{
			"bufferView":6,
			"componentType":5126,
			"count":16,
			"type":"MAT4"
		},
		{
			"bufferView":7,
			"componentType":5126,
			"count":15832,
			"max":[
				0.27604880928993225,
				0.0245647132396698,
				0.0845528244972229
			],
			"min":[
				-0.27982407808303833,
				-0.5956519246101379,
				-0.0768139436841011
			],
			"type":"VEC3"
		},
		{
			"bufferView":8,
			"componentType":5126,
			"count":15832,
			"type":"VEC2"
		},
		{
			"bufferView":9,
			"componentType":5126,
			"count":15832,
			"type":"VEC3"
		},
		{
			"bufferView":10,
			"componentType":5121,
			"count":15832,
			"type":"VEC4"
		},
		{
			"bufferView":11,
			"componentType":5126,
			"count":15832,
			"type":"VEC4"
		},
		{
			"bufferView":12,
			"componentType":5123,
			"count":91440,
			"type":"SCALAR"
		}
	],
	"bufferViews":[
		{
			"buffer":0,
			"byteLength":381408,
			"byteOffset":0,
			"target":34962
		},
		{
			"buffer":0,
			"byteLength":254272,
			"byteOffset":381408,
			"target":34962
		},
		{
			"buffer":0,
			"byteLength":381408,
			"byteOffset":635680,
			"target":34962
		},
		{
			"buffer":0,
			"byteLength":127136,
			"byteOffset":1017088,
			"target":34962
		},
		{
			"buffer":0,
			"byteLength":508544,
			"byteOffset":1144224,
			"target":34962
		},
		{
			"buffer":0,
			"byteLength":375360,
			"byteOffset":1652768,
			"target":34963
		},
		{
			"buffer":0,
			"byteLength":1024,
			"byteOffset":2028128
		},
		{
			"buffer":0,
			"byteLength":189984,
			"byteOffset":2029152,
			"target":34962
		},
		{
			"buffer":0,
			"byteLength":126656,
			"byteOffset":2219136,
			"target":34962
		},
		{
			"buffer":0,
			"byteLength":189984,
			"byteOffset":2345792,
			"target":34962
		},
		{
			"buffer":0,
			"byteLength":63328,
			"byteOffset":2535776,
			"target":34962
		},
		{
			"buffer":0,
			"byteLength":253312,
			"byteOffset":2599104,
			"target":34962
		},
		{
			"buffer":0,
			"byteLength":182880,
			"byteOffset":2852416,
			"target":34963
		}
	],
	"samplers":[
		{
			"magFilter":9729,
			"minFilter":9987
		}
	],
	"buffers":[
		{
			"byteLength":3035296,
			"uri":"ldress.bin"
		}
	]
}
