{
	"asset":{
		"generator":"Khronos glTF Blender I/O v3.5.30",
		"version":"2.0"
	},
	"scene":0,
	"scenes":[
		{
			"name":"Scene",
			"nodes":[
				19
			]
		}
	],
	"nodes":[
		{
			"name":"Bone.004",
			"rotation":[
				0.00526453135535121,
				-0.9981637597084045,
				-0.06033375859260559,
				0.0011632069945335388
			],
			"scale":[
				0.9999999403953552,
				1.0000001192092896,
				1
			],
			"translation":[
				-5.609763320535421e-09,
				2.2360918521881104,
				-2.7762325771618634e-09
			]
		},
		{
			"name":"Bone.016",
			"rotation":[
				-0.14608393609523773,
				-0.0310355294495821,
				0.01816016435623169,
				0.9886184930801392
			],
			"scale":[
				0.9999998807907104,
				0.9999999403953552,
				1
			],
			"translation":[
				-0.010909260250627995,
				2.0156090259552,
				0.014583215117454529
			]
		},
		{
			"children":[
				1
			],
			"name":"Bone.010",
			"rotation":[
				-0.2695435881614685,
				0.556890070438385,
				-0.14212916791439056,
				0.7726700901985168
			],
			"scale":[
				1.0000001192092896,
				1,
				0.9999998211860657
			],
			"translation":[
				-0.0025252699851989746,
				1.2581472396850586,
				-0.06273327767848969
			]
		},
		{
			"children":[
				2
			],
			"name":"Bone.006",
			"rotation":[
				-0.5932649374008179,
				0.4945569932460785,
				0.42867907881736755,
				0.4687049984931946
			],
			"scale":[
				1.0000001192092896,
				0.9999999403953552,
				0.9999999403953552
			],
			"translation":[
				-2.5550980353727937e-07,
				2.236091375350952,
				-3.5237690099165775e-07
			]
		},
		{
			"name":"Bone.017",
			"rotation":[
				-0.03017032891511917,
				0.0699477419257164,
				-0.025255277752876282,
				0.996774435043335
			],
			"translation":[
				0.04788372665643692,
				1.8851982355117798,
				-0.01812112331390381
			]
		},
		{
			"children":[
				4
			],
			"name":"Bone.011",
			"rotation":[
				-0.21512123942375183,
				-0.6194353103637695,
				0.21148456633090973,
				0.7247738242149353
			],
			"scale":[
				1,
				0.9999999403953552,
				0.9999999403953552
			],
			"translation":[
				0.006136365234851837,
				1.327522873878479,
				-0.07882681488990784
			]
		},
		{
			"children":[
				5
			],
			"name":"Bone.008",
			"rotation":[
				-0.5661047101020813,
				-0.5481529235839844,
				-0.45950230956077576,
				0.40977001190185547
			],
			"scale":[
				0.9999999403953552,
				0.9999997019767761,
				1
			],
			"translation":[
				-1.1550582712516189e-07,
				2.2360918521881104,
				-2.5902409106492996e-09
			]
		},
		{
			"children":[
				0,
				3,
				6
			],
			"name":"Bone.003",
			"rotation":[
				0.09119139611721039,
				-0.0003545286017470062,
				-0.005379888694733381,
				0.9958187937736511
			],
			"translation":[
				-0.027106089517474174,
				-2.168198585510254,
				-0.5136550664901733
			]
		},
		{
			"name":"Bone.026",
			"rotation":[
				-0.1334213763475418,
				0.011901138350367546,
				-0.06658922880887985,
				0.9887481927871704
			],
			"scale":[
				1,
				0.9999999403953552,
				1
			],
			"translation":[
				3.055688466702122e-07,
				1.2559964656829834,
				6.82193785905838e-08
			]
		},
		{
			"children":[
				8
			],
			"name":"Bone.014",
			"rotation":[
				-0.04654273763298988,
				0.00044554556370712817,
				0.016821855679154396,
				0.998774528503418
			],
			"scale":[
				1,
				1.0000001192092896,
				1
			],
			"translation":[
				4.816456566913985e-08,
				2.0767335891723633,
				-3.166496753692627e-08
			]
		},
		{
			"children":[
				9
			],
			"name":"Bone.012",
			"rotation":[
				-0.09164992719888687,
				0.5892661809921265,
				-0.43360066413879395,
				0.675541341304779
			],
			"scale":[
				1,
				1.0000001192092896,
				1.0000001192092896
			],
			"translation":[
				-2.1979212760925293e-07,
				0.5248269438743591,
				1.064501702785492e-06
			]
		},
		{
			"children":[
				10
			],
			"name":"Bone.007",
			"rotation":[
				-0.6299463510513306,
				0.38838258385658264,
				0.6381534934043884,
				0.2123364359140396
			],
			"scale":[
				0.9999998211860657,
				0.9999999403953552,
				1
			],
			"translation":[
				-0.004258842207491398,
				-2.2037975788116455,
				-0.5861784219741821
			]
		},
		{
			"name":"Bone.027",
			"rotation":[
				-0.13342100381851196,
				-0.011901427991688251,
				0.06658913195133209,
				0.9887482523918152
			],
			"scale":[
				0.9999998807907104,
				1,
				1
			],
			"translation":[
				-3.1100353226065636e-07,
				1.255994200706482,
				2.9080547392368317e-07
			]
		},
		{
			"children":[
				12
			],
			"name":"Bone.015",
			"rotation":[
				-0.046542856842279434,
				-0.0004451876739040017,
				-0.01682170107960701,
				0.998774528503418
			],
			"scale":[
				1,
				1,
				1.0000001192092896
			],
			"translation":[
				-1.473945303587243e-07,
				2.076734781265259,
				-4.800967872142792e-07
			]
		},
		{
			"children":[
				13
			],
			"name":"Bone.013",
			"rotation":[
				-0.09639520943164825,
				-0.5874123573303223,
				0.4360820949077606,
				0.6748978495597839
			],
			"scale":[
				1,
				1.0000001192092896,
				0.9999999403953552
			],
			"translation":[
				5.383044481277466e-07,
				0.5318614840507507,
				8.065253496170044e-07
			]
		},
		{
			"children":[
				14
			],
			"name":"Bone.009",
			"rotation":[
				-0.6285436153411865,
				-0.39106568694114685,
				-0.6363833546638489,
				0.2168336808681488
			],
			"scale":[
				1,
				1.0000001192092896,
				1
			],
			"translation":[
				-0.004258845932781696,
				-2.2037975788116455,
				-0.5861784219741821
			]
		},
		{
			"name":"neutral_bone",
			"rotation":[
				-2.011657045386528e-07,
				3.8380960631911876e-09,
				-7.556489833859814e-08,
				1
			],
			"scale":[
				1,
				0.9999999403953552,
				0.9999999403953552
			],
			"translation":[
				-0.0032914653420448303,
				-1.1110272407531738,
				-0.11468468606472015
			]
		},
		{
			"name":"neutral_bone.001",
			"rotation":[
				-2.011657045386528e-07,
				3.8380960631911876e-09,
				-7.556489833859814e-08,
				1
			],
			"scale":[
				1,
				0.9999999403953552,
				0.9999999403953552
			],
			"translation":[
				-0.0032914653420448303,
				-1.1110272407531738,
				-0.11468468606472015
			]
		},
		{
			"mesh":0,
			"name":"jacket_low_Jacket_M_0",
			"skin":0
		},
		{
			"children":[
				18,
				7,
				11,
				15,
				16,
				17
			],
			"name":"Armature.001",
			"rotation":[
				-0.09749449789524078,
				0,
				0,
				0.9952360987663269
			],
			"scale":[
				0.10899999737739563,
				0.10927297919988632,
				0.10899997502565384
			]
		}
	],
	"materials":[
		{
			"doubleSided":true,
			"name":"Jacket_M.001",
			"normalTexture":{
				"index":0
			},
			"occlusionTexture":{
				"index":1
			},
			"pbrMetallicRoughness":{
				"baseColorTexture":{
					"index":2
				},
				"metallicFactor":0,
				"metallicRoughnessTexture":{
					"index":1
				}
			}
		}
	],
	"meshes":[
		{
			"name":"jacket_low_Jacket_M_0.001",
			"primitives":[
				{
					"attributes":{
						"POSITION":0,
						"TEXCOORD_0":1,
						"NORMAL":2,
						"JOINTS_0":3,
						"WEIGHTS_0":4
					},
					"indices":5,
					"material":0
				}
			]
		}
	],
	"textures":[
		{
			"sampler":0,
			"source":0
		},
		{
			"sampler":0,
			"source":1
		},
		{
			"sampler":0,
			"source":2
		}
	],
	"images":[
		{
			"mimeType":"image/png",
			"name":"Jacket_M_normal",
			"uri":"Jacket_M_normal.png"
		},
		{
			"mimeType":"image/png",
			"name":"Jacket_M_metallicRoughness",
			"uri":"Jacket_M_metallicRoughness.png"
		},
		{
			"mimeType":"image/png",
			"name":"Jacket_M_baseColor",
			"uri":"Jacket_M_baseColor.png"
		}
	],
	"skins":[
		{
			"inverseBindMatrices":6,
			"joints":[
				7,
				0,
				3,
				2,
				1,
				6,
				5,
				4,
				11,
				10,
				9,
				8,
				15,
				14,
				13,
				12,
				16,
				17
			],
			"name":"Armature.001"
		}
	],
	"accessors":[
		{
			"bufferView":0,
			"componentType":5126,
			"count":2115,
			"max":[
				0.46084141731262207,
				0.10278751701116562,
				0.1286667436361313
			],
			"min":[
				-0.464352548122406,
				-0.38057389855384827,
				-0.10032406449317932
			],
			"type":"VEC3"
		},
		{
			"bufferView":1,
			"componentType":5126,
			"count":2115,
			"type":"VEC2"
		},
		{
			"bufferView":2,
			"componentType":5126,
			"count":2115,
			"type":"VEC3"
		},
		{
			"bufferView":3,
			"componentType":5121,
			"count":2115,
			"type":"VEC4"
		},
		{
			"bufferView":4,
			"componentType":5126,
			"count":2115,
			"type":"VEC4"
		},
		{
			"bufferView":5,
			"componentType":5123,
			"count":11331,
			"type":"SCALAR"
		},
		{
			"bufferView":6,
			"componentType":5126,
			"count":18,
			"type":"MAT4"
		}
	],
	"bufferViews":[
		{
			"buffer":0,
			"byteLength":25380,
			"byteOffset":0,
			"target":34962
		},
		{
			"buffer":0,
			"byteLength":16920,
			"byteOffset":25380,
			"target":34962
		},
		{
			"buffer":0,
			"byteLength":25380,
			"byteOffset":42300,
			"target":34962
		},
		{
			"buffer":0,
			"byteLength":8460,
			"byteOffset":67680,
			"target":34962
		},
		{
			"buffer":0,
			"byteLength":33840,
			"byteOffset":76140,
			"target":34962
		},
		{
			"buffer":0,
			"byteLength":22662,
			"byteOffset":109980,
			"target":34963
		},
		{
			"buffer":0,
			"byteLength":1152,
			"byteOffset":132644
		}
	],
	"samplers":[
		{
			"magFilter":9729,
			"minFilter":9987
		}
	],
	"buffers":[
		{
			"byteLength":133796,
			"uri":"jack.bin"
		}
	]
}
